<svg width="1502" height="2223" viewBox="0 0 1502 2223" fill="none" xmlns="http://www.w3.org/2000/svg">
<path d="M1270.63 1229.48C1270.63 1227.68 1270.64 1225.88 1270.7 1224.06C1271.21 1206.55 1274.64 1189.11 1273.72 1171.65C1272.27 1143.65 1257.21 1126.46 1234.34 1117.23C1210.05 1107.45 1182.85 1111.55 1157.8 1119.42C1147.4 1122.69 1136.97 1126.69 1128.23 1133.83C1115.45 1144.29 1107.57 1160.36 1097.68 1174.18C1071.04 1211.43 1023.34 1205.72 987.026 1222.74C966.034 1232.58 948.181 1249.45 932.854 1268.25C923.079 1280.24 914.046 1293.34 908.908 1308.44C903.985 1322.9 902.815 1338.58 903.3 1353.95C904.142 1381.43 910.235 1408.98 923.307 1432.14C942.601 1466.31 972.498 1474.33 1001.72 1492.9C1032.86 1512.69 1068.57 1523.26 1104.44 1525.49C1144.2 1527.96 1186.06 1520.32 1218.62 1494.3C1232.27 1483.4 1252.02 1464.56 1257.3 1446.89C1269.34 1406.61 1281.53 1365.27 1280.19 1323.02C1279.22 1291.61 1270.71 1260.85 1270.63 1229.48Z" fill="#4F5761"/>
<path d="M700.329 610.251C695.977 600.114 690.817 589.727 684.764 578.977C650.427 517.904 588.169 476.77 522.73 451.511C457.292 426.252 387.502 414.778 319.247 398.542C290.209 391.635 261.005 383.782 231.159 384.005C168.733 384.478 110.101 421.601 74.1459 472.565C38.1911 523.529 22.8775 586.719 20.3392 649.018C18.0798 704.911 26.3643 763.394 57.8003 809.707C74.6202 834.493 97.2418 854.656 119.612 874.568C154.507 905.592 189.374 936.588 224.269 967.612C243.097 984.35 262.204 1001.28 284.687 1012.64C358.493 1049.96 470.625 1019.83 528.811 968.086C542.758 955.693 557.458 944.275 572.464 933.191C601.278 911.886 630.901 890.888 653.914 863.122C673.523 839.478 688.613 812.492 698.962 783.585C722.56 717.749 725.154 668.15 700.329 610.251Z" fill="#4F5761"/>
<path d="M219.862 2120.79C200.514 2108.83 182.469 2094.59 164.665 2080.36C141.021 2061.46 116.557 2041.09 105.6 2012.86C83.4247 1955.76 107.888 1851.58 148.499 1807.09C174.879 1778.19 229.703 1758.16 266.407 1746.04C309.418 1731.83 356.298 1729.09 400.518 1739.17C470.969 1755.23 533.383 1803.57 566.59 1867.81C578.18 1890.25 586.44 1915 586.068 1940.24C585.584 1973.18 570.515 2004.3 551.763 2031.37C518.872 2078.85 472.867 2117.96 418.88 2138.44C364.893 2158.92 302.888 2159.83 249.98 2136.73C239.525 2132.18 229.535 2126.76 219.862 2120.79Z" fill="#4F5761"/>
<path d="M282.519 1434.3C273.069 1428.47 264.255 1421.52 255.559 1414.57C244.01 1405.35 232.062 1395.41 226.71 1381.63C215.879 1353.75 227.827 1302.9 247.663 1281.19C260.548 1267.09 287.326 1257.31 305.254 1251.39C326.262 1244.46 349.16 1243.12 370.758 1248.04C405.169 1255.88 435.654 1279.47 451.874 1310.83C457.534 1321.78 461.569 1333.86 461.387 1346.18C461.151 1362.26 453.791 1377.45 444.631 1390.66C428.567 1413.84 406.096 1432.92 379.727 1442.92C353.358 1452.92 323.072 1453.36 297.23 1442.08C292.124 1439.87 287.244 1437.22 282.519 1434.3Z" fill="#4F5761"/>
</svg>
